G04 DipTrace 3.1.0.1*
G04 BottomSilk.gbr*
%MOIN*%
G04 #@! TF.FileFunction,Legend,Bot*
G04 #@! TF.Part,Single*
%ADD56C,0.009264*%
%FSLAX26Y26*%
G04*
G70*
G90*
G75*
G01*
G04 BotSilk*
%LPD*%
X1456698Y909271D2*
D56*
Y848983D1*
X1416506Y909271D2*
X1456698Y869079D1*
X1442372Y883471D2*
X1416506Y848983D1*
X1360705Y909271D2*
X1397979D1*
Y848983D1*
X1360705D1*
X1397979Y880552D2*
X1375031D1*
X1307756Y900648D2*
X1310608Y906352D1*
X1319230Y909204D1*
X1324934D1*
X1333556Y906352D1*
X1339326Y897730D1*
X1342178Y883404D1*
Y869079D1*
X1339326Y857605D1*
X1333556Y851834D1*
X1324934Y848983D1*
X1322082D1*
X1313526Y851834D1*
X1307756Y857605D1*
X1304904Y866227D1*
Y869079D1*
X1307756Y877701D1*
X1313526Y883404D1*
X1322082Y886256D1*
X1324934D1*
X1333556Y883404D1*
X1339326Y877701D1*
X1342178Y869079D1*
X1240481Y848983D2*
Y909271D1*
X1263429Y848983D1*
X1286377Y909271D1*
Y848983D1*
X1201858Y909271D2*
Y848983D1*
X1221954Y909271D2*
X1181762D1*
X1145991D2*
X1151761Y906419D1*
X1157465Y900648D1*
X1160383Y894945D1*
X1163235Y886323D1*
Y871930D1*
X1160383Y863375D1*
X1157465Y857605D1*
X1151761Y851901D1*
X1145991Y848983D1*
X1134517D1*
X1128813Y851901D1*
X1123043Y857605D1*
X1120191Y863375D1*
X1117339Y871930D1*
Y886323D1*
X1120191Y894945D1*
X1123043Y900648D1*
X1128813Y906419D1*
X1134517Y909271D1*
X1145991D1*
X1697260Y809281D2*
X1734600D1*
Y748993D1*
Y780563D2*
X1711652D1*
X1678732Y771941D2*
X1644311D1*
Y777711D1*
X1647163Y783481D1*
X1650014Y786333D1*
X1655785Y789185D1*
X1664407D1*
X1670110Y786333D1*
X1675881Y780563D1*
X1678732Y771941D1*
Y766237D1*
X1675881Y757615D1*
X1670110Y751911D1*
X1664407Y748993D1*
X1655785D1*
X1650014Y751911D1*
X1644311Y757615D1*
X1591362Y789185D2*
Y748993D1*
Y780563D2*
X1597065Y786333D1*
X1602836Y789185D1*
X1611391D1*
X1617161Y786333D1*
X1622865Y780563D1*
X1625784Y771941D1*
Y766237D1*
X1622865Y757615D1*
X1617161Y751911D1*
X1611391Y748993D1*
X1602836D1*
X1597065Y751911D1*
X1591362Y757615D1*
X1564213Y809281D2*
Y760467D1*
X1561361Y751911D1*
X1555590Y748993D1*
X1549887D1*
X1572835Y789185D2*
X1552739D1*
X1531360Y809281D2*
Y748993D1*
Y777711D2*
X1522738Y786333D1*
X1516967Y789185D1*
X1508345D1*
X1502642Y786333D1*
X1499790Y777711D1*
Y748993D1*
X1481263Y771941D2*
X1446841D1*
Y777711D1*
X1449693Y783481D1*
X1452544Y786333D1*
X1458315Y789185D1*
X1466937D1*
X1472640Y786333D1*
X1478411Y780563D1*
X1481263Y771941D1*
Y766237D1*
X1478411Y757615D1*
X1472640Y751911D1*
X1466937Y748993D1*
X1458315D1*
X1452544Y751911D1*
X1446841Y757615D1*
X1428314Y789185D2*
Y748993D1*
Y771941D2*
X1425395Y780563D1*
X1419691Y786333D1*
X1413921Y789185D1*
X1405299D1*
X1386772Y809281D2*
X1372380Y748993D1*
X1358054Y809281D1*
X1343728Y748993D1*
X1329336Y809281D1*
X1310809D2*
X1307957Y806429D1*
X1305039Y809281D1*
X1307957Y812199D1*
X1310809Y809281D1*
X1307957Y789185D2*
Y748993D1*
X1286512Y789185D2*
Y748993D1*
Y777711D2*
X1277890Y786333D1*
X1272120Y789185D1*
X1263564D1*
X1257794Y786333D1*
X1254942Y777711D1*
Y748993D1*
X1201993Y786333D2*
Y740371D1*
X1204845Y731815D1*
X1207697Y728897D1*
X1213467Y726045D1*
X1222089D1*
X1227793Y728897D1*
X1201993Y777711D2*
X1207697Y783415D1*
X1213467Y786333D1*
X1222089D1*
X1227793Y783415D1*
X1233563Y777711D1*
X1236415Y769089D1*
Y763319D1*
X1233563Y754763D1*
X1227793Y748993D1*
X1222089Y746141D1*
X1213467D1*
X1207697Y748993D1*
X1201993Y754763D1*
X1183466Y739044D2*
X1128948D1*
X1067377Y794955D2*
X1070229Y800659D1*
X1075999Y806429D1*
X1081703Y809281D1*
X1093177D1*
X1098947Y806429D1*
X1104651Y800659D1*
X1107569Y794955D1*
X1110421Y786333D1*
Y771941D1*
X1107569Y763385D1*
X1104651Y757615D1*
X1098947Y751911D1*
X1093177Y748993D1*
X1081703D1*
X1075999Y751911D1*
X1070229Y757615D1*
X1067377Y763385D1*
Y771941D1*
X1081703D1*
X1048850Y777711D2*
X1022984D1*
X1014428Y780563D1*
X1011510Y783481D1*
X1008658Y789185D1*
Y797807D1*
X1011510Y803511D1*
X1014428Y806429D1*
X1022984Y809281D1*
X1048850D1*
Y748993D1*
X949939Y800659D2*
X955643Y806429D1*
X964265Y809281D1*
X975739D1*
X984361Y806429D1*
X990131Y800659D1*
Y794955D1*
X987212Y789185D1*
X984361Y786333D1*
X978657Y783481D1*
X961413Y777711D1*
X955643Y774859D1*
X952791Y771941D1*
X949939Y766237D1*
Y757615D1*
X955643Y751911D1*
X964265Y748993D1*
X975739D1*
X984361Y751911D1*
X990131Y757615D1*
X931412Y789185D2*
X914168Y748993D1*
X896990Y789185D1*
X878463Y797741D2*
X872692Y800659D1*
X864070Y809215D1*
Y748993D1*
X811121Y789185D2*
Y748993D1*
Y780563D2*
X816825Y786333D1*
X822595Y789185D1*
X831151D1*
X836921Y786333D1*
X842625Y780563D1*
X845543Y771941D1*
Y766237D1*
X842625Y757615D1*
X836921Y751911D1*
X831151Y748993D1*
X822595D1*
X816825Y751911D1*
X811121Y757615D1*
M02*
