G04 DipTrace 3.1.0.1*
G04 Bottom.gbr*
%MOIN*%
G04 #@! TF.FileFunction,Copper,L2,Bot*
G04 #@! TF.Part,Single*
G04 #@! TA.AperFunction,CopperBalancing*
%ADD13C,0.012992*%
%ADD14C,0.025*%
G04 #@! TA.AperFunction,ComponentPad*
%ADD19R,0.066929X0.066929*%
%ADD20C,0.066929*%
%ADD25C,0.059055*%
G04 #@! TA.AperFunction,ViaPad*
%ADD28C,0.04*%
%FSLAX26Y26*%
G04*
G70*
G90*
G75*
G01*
G04 Bottom*
%LPD*%
X1854725Y1243701D2*
D13*
X1867225D1*
X1810975Y1187452D1*
X573475D1*
X454725Y1068701D1*
Y793701D1*
X1954725Y1243701D2*
X1967225D1*
X1885988Y1162465D1*
X623488D1*
X517225Y1056201D1*
X1485974Y1124952D2*
X1823474D1*
X1854725Y1093701D1*
D28*
X2023475Y649950D3*
X2098475Y1162452D3*
X1973475Y1043701D3*
X1492225Y881201D3*
X1854725Y1093701D3*
X1485974Y1124952D3*
X1685974Y1087452D3*
X454725Y793701D3*
X517225Y1056201D3*
X560974Y637452D3*
X654725Y1024950D3*
X598475Y1237452D3*
X438680Y1225086D2*
D14*
X792271D1*
X2014210D2*
X2158488D1*
X438680Y1200217D2*
X537097D1*
X1998494D2*
X2158488D1*
X438680Y1175348D2*
X512230D1*
X1948040D2*
X2158488D1*
X438680Y1150479D2*
X487362D1*
X1923172D2*
X2158488D1*
X438680Y1125610D2*
X462495D1*
X1894572D2*
X2158488D1*
X610924Y1100742D2*
X1443784D1*
X1903185D2*
X2158488D1*
X586055Y1075873D2*
X1011487D1*
X1097944D2*
X1809299D1*
X1900171D2*
X2158488D1*
X565925Y1051004D2*
X997886D1*
X1111580D2*
X1833809D1*
X1875626D2*
X2158488D1*
X555196Y1026135D2*
X997348D1*
X1112082D2*
X2158488D1*
X490209Y1001267D2*
X1009406D1*
X1100025D2*
X2158488D1*
X490209Y976398D2*
X2158488D1*
X490209Y951529D2*
X2158488D1*
X490209Y926660D2*
X2158488D1*
X490209Y901792D2*
X2158488D1*
X490209Y876923D2*
X2158488D1*
X490209Y852054D2*
X2158488D1*
X490209Y827185D2*
X2158488D1*
X502912Y802316D2*
X2158488D1*
X500795Y777448D2*
X2158488D1*
X478906Y752579D2*
X2158488D1*
X438680Y727710D2*
X2158488D1*
X438680Y702841D2*
X2158488D1*
X438680Y677973D2*
X1007898D1*
X1101532D2*
X2158488D1*
X438680Y653104D2*
X996990D1*
X1112441D2*
X2158488D1*
X438680Y628235D2*
X998389D1*
X1111078D2*
X2158488D1*
X438680Y603366D2*
X1013353D1*
X1096114D2*
X2158488D1*
X438680Y578498D2*
X2158488D1*
X438680Y553629D2*
X2158488D1*
X438680Y528760D2*
X2158488D1*
X438680Y503891D2*
X2158488D1*
X2017189Y479023D2*
X2158488D1*
X2017189Y454154D2*
X2158488D1*
X1896605Y503658D2*
X2014681D1*
Y431294D1*
X2160995Y431293D1*
X2160978Y1249978D1*
X2014331Y1249954D1*
X2014681Y1243701D1*
X2013944Y1234322D1*
X2011747Y1225173D1*
X2008146Y1216482D1*
X2003231Y1208460D1*
X1997121Y1201305D1*
X1989966Y1195194D1*
X1981944Y1190280D1*
X1973252Y1186679D1*
X1964104Y1184482D1*
X1954725Y1183744D1*
X1953935Y1183776D1*
X1901149Y1131117D1*
X1896961Y1128074D1*
X1892349Y1125723D1*
X1889908Y1124824D1*
X1890078Y1123895D1*
X1894365Y1117994D1*
X1897677Y1111492D1*
X1899932Y1104554D1*
X1901074Y1097349D1*
Y1090053D1*
X1899932Y1082848D1*
X1897677Y1075910D1*
X1894365Y1069408D1*
X1890078Y1063507D1*
X1884919Y1058348D1*
X1879017Y1054061D1*
X1872516Y1050748D1*
X1865578Y1048494D1*
X1858373Y1047352D1*
X1851076D1*
X1843872Y1048494D1*
X1836933Y1050748D1*
X1830432Y1054061D1*
X1824530Y1058348D1*
X1819372Y1063507D1*
X1815084Y1069408D1*
X1811772Y1075910D1*
X1809517Y1082848D1*
X1808376Y1090053D1*
X1808301Y1091977D1*
X1518710Y1091963D1*
X1513301Y1087339D1*
X1507082Y1083526D1*
X1500341Y1080735D1*
X1493247Y1079032D1*
X1485974Y1078460D1*
X1478701Y1079032D1*
X1471607Y1080735D1*
X1464866Y1083526D1*
X1458647Y1087339D1*
X1453099Y1092076D1*
X1448361Y1097625D1*
X1444549Y1103844D1*
X1441757Y1110584D1*
X1440054Y1117679D1*
X1439550Y1123200D1*
X630919Y1123213D1*
X563693Y1056017D1*
X563145Y1048928D1*
X561441Y1041834D1*
X558650Y1035093D1*
X554837Y1028874D1*
X550100Y1023326D1*
X544551Y1018588D1*
X538332Y1014776D1*
X531592Y1011984D1*
X524498Y1010281D1*
X517225Y1009709D1*
X509952Y1010281D1*
X502857Y1011984D1*
X496117Y1014776D1*
X489898Y1018588D1*
X487714Y1020310D1*
X487713Y826446D1*
X492337Y821028D1*
X496150Y814809D1*
X498941Y808068D1*
X500645Y800974D1*
X501217Y793701D1*
X500645Y786428D1*
X498941Y779334D1*
X496150Y772593D1*
X492337Y766374D1*
X487600Y760826D1*
X482051Y756088D1*
X475832Y752276D1*
X469092Y749484D1*
X461998Y747781D1*
X454725Y747209D1*
X447452Y747781D1*
X440357Y749484D1*
X436168Y751100D1*
X436197Y500723D1*
X445345Y502919D1*
X454725Y503658D1*
X464104Y502919D1*
X473252Y500723D1*
X481944Y497122D1*
X489966Y492206D1*
X497121Y486097D1*
X503230Y478942D1*
X504692Y476756D1*
X509133Y482639D1*
X515786Y489293D1*
X523398Y494823D1*
X531780Y499093D1*
X540729Y502002D1*
X550020Y503473D1*
X559429D1*
X568721Y502002D1*
X577670Y499093D1*
X586051Y494823D1*
X593663Y489293D1*
X600316Y482639D1*
X604692Y476756D1*
X609133Y482639D1*
X615786Y489293D1*
X623398Y494822D1*
X631780Y499093D1*
X640729Y502002D1*
X650020Y503473D1*
X659429D1*
X668721Y502002D1*
X677670Y499093D1*
X686051Y494822D1*
X693663Y489293D1*
X700316Y482639D1*
X704692Y476756D1*
X709628Y483211D1*
X714797Y488428D1*
X720565Y492975D1*
X726845Y496782D1*
X733545Y499793D1*
X740562Y501961D1*
X747792Y503256D1*
X755125Y503656D1*
X762453Y503158D1*
X769664Y501767D1*
X776651Y499504D1*
X783310Y496404D1*
X789540Y492515D1*
X795247Y487891D1*
X800345Y482605D1*
X804723Y476789D1*
X809133Y482639D1*
X815786Y489293D1*
X823398Y494822D1*
X831780Y499093D1*
X840729Y502002D1*
X850020Y503473D1*
X859429D1*
X868721Y502002D1*
X877670Y499093D1*
X886051Y494822D1*
X893663Y489293D1*
X900316Y482639D1*
X904692Y476756D1*
X909133Y482639D1*
X915786Y489293D1*
X923398Y494822D1*
X931780Y499093D1*
X940729Y502002D1*
X950020Y503473D1*
X959429D1*
X968721Y502002D1*
X977670Y499093D1*
X986051Y494822D1*
X993663Y489293D1*
X1000316Y482639D1*
X1004692Y476756D1*
X1009133Y482639D1*
X1015786Y489293D1*
X1023398Y494822D1*
X1031780Y499093D1*
X1040729Y502002D1*
X1050020Y503473D1*
X1059429D1*
X1068721Y502002D1*
X1077670Y499093D1*
X1086051Y494822D1*
X1093663Y489293D1*
X1100316Y482639D1*
X1104692Y476756D1*
X1109133Y482639D1*
X1115786Y489293D1*
X1123398Y494822D1*
X1131780Y499093D1*
X1140729Y502002D1*
X1150020Y503473D1*
X1159429D1*
X1168721Y502002D1*
X1177670Y499093D1*
X1186051Y494822D1*
X1193663Y489293D1*
X1200316Y482639D1*
X1204692Y476756D1*
X1209133Y482639D1*
X1215786Y489293D1*
X1223398Y494822D1*
X1231780Y499093D1*
X1240729Y502002D1*
X1250020Y503473D1*
X1259429D1*
X1268721Y502002D1*
X1277670Y499093D1*
X1286051Y494822D1*
X1293663Y489293D1*
X1300316Y482639D1*
X1304692Y476756D1*
X1309133Y482639D1*
X1315786Y489293D1*
X1323398Y494822D1*
X1331780Y499093D1*
X1340729Y502002D1*
X1350020Y503473D1*
X1359429D1*
X1368721Y502002D1*
X1377670Y499093D1*
X1386051Y494822D1*
X1393663Y489293D1*
X1400316Y482639D1*
X1404692Y476756D1*
X1409133Y482639D1*
X1415786Y489293D1*
X1423398Y494822D1*
X1431780Y499093D1*
X1440729Y502002D1*
X1450020Y503473D1*
X1459429D1*
X1468721Y502002D1*
X1477670Y499093D1*
X1486051Y494822D1*
X1493663Y489293D1*
X1500316Y482639D1*
X1504692Y476756D1*
X1509133Y482639D1*
X1515786Y489293D1*
X1523398Y494822D1*
X1531780Y499093D1*
X1540729Y502002D1*
X1550020Y503473D1*
X1559429D1*
X1568721Y502002D1*
X1577670Y499093D1*
X1586051Y494822D1*
X1593663Y489293D1*
X1600316Y482639D1*
X1604692Y476756D1*
X1609133Y482639D1*
X1615786Y489293D1*
X1623398Y494822D1*
X1631780Y499093D1*
X1640729Y502002D1*
X1650020Y503473D1*
X1659429D1*
X1668721Y502002D1*
X1677670Y499093D1*
X1686051Y494822D1*
X1693663Y489293D1*
X1700316Y482639D1*
X1704692Y476756D1*
X1709133Y482639D1*
X1715786Y489293D1*
X1723398Y494823D1*
X1731780Y499093D1*
X1740729Y502002D1*
X1750020Y503473D1*
X1759429D1*
X1768721Y502002D1*
X1777670Y499093D1*
X1786051Y494823D1*
X1793663Y489293D1*
X1800316Y482639D1*
X1804692Y476756D1*
X1809133Y482639D1*
X1815786Y489293D1*
X1823398Y494823D1*
X1831780Y499093D1*
X1840729Y502002D1*
X1850020Y503473D1*
X1859429D1*
X1868721Y502002D1*
X1877670Y499093D1*
X1886051Y494823D1*
X1893663Y489293D1*
X1894768Y488469D1*
Y503658D1*
X1896605D1*
X794768Y1220454D2*
Y1249950D1*
X436145Y1249954D1*
X436162Y1096777D1*
X552051Y1212536D1*
X556239Y1215579D1*
X560851Y1217929D1*
X565774Y1219528D1*
X570887Y1220339D1*
X637780Y1220440D1*
X794773D1*
X1110714Y641864D2*
X1109992Y634555D1*
X1108322Y627404D1*
X1105730Y620533D1*
X1102260Y614061D1*
X1097975Y608097D1*
X1092945Y602746D1*
X1087260Y598097D1*
X1081015Y594234D1*
X1074318Y591219D1*
X1067285Y589108D1*
X1060034Y587933D1*
X1052694Y587718D1*
X1045389Y588465D1*
X1038243Y590160D1*
X1031381Y592777D1*
X1024920Y596268D1*
X1018971Y600574D1*
X1013637Y605622D1*
X1009009Y611323D1*
X1005167Y617582D1*
X1002176Y624289D1*
X1000088Y631330D1*
X998940Y638583D1*
X998750Y645924D1*
X999521Y653227D1*
X1001242Y660368D1*
X1003881Y667221D1*
X1007395Y673670D1*
X1011722Y679603D1*
X1016788Y684920D1*
X1022505Y689528D1*
X1028777Y693349D1*
X1035494Y696316D1*
X1042542Y698379D1*
X1049799Y699504D1*
X1057142Y699668D1*
X1064442Y698872D1*
X1071575Y697126D1*
X1078419Y694463D1*
X1084856Y690927D1*
X1090774Y686580D1*
X1096074Y681496D1*
X1100663Y675761D1*
X1104462Y669477D1*
X1107406Y662750D1*
X1109445Y655694D1*
X1110544Y648433D1*
X1110714Y641864D1*
X1110571Y1033007D2*
X1109197Y1024324D1*
X1106481Y1015963D1*
X1102490Y1008131D1*
X1097322Y1001020D1*
X1091107Y994805D1*
X1083995Y989637D1*
X1076163Y985646D1*
X1067802Y982929D1*
X1059120Y981555D1*
X1050330D1*
X1041647Y982929D1*
X1033286Y985646D1*
X1025454Y989637D1*
X1018343Y994805D1*
X1012128Y1001020D1*
X1006960Y1008131D1*
X1002969Y1015963D1*
X1000252Y1024324D1*
X998878Y1033007D1*
Y1041797D1*
X1000252Y1050479D1*
X1002969Y1058840D1*
X1006960Y1066672D1*
X1012128Y1073784D1*
X1018343Y1079999D1*
X1025454Y1085167D1*
X1033286Y1089158D1*
X1041647Y1091874D1*
X1050330Y1093248D1*
X1059120D1*
X1067802Y1091874D1*
X1076163Y1089158D1*
X1083995Y1085167D1*
X1091107Y1079999D1*
X1097322Y1073784D1*
X1102490Y1066672D1*
X1106481Y1058840D1*
X1109197Y1050479D1*
X1110571Y1041797D1*
Y1033007D1*
X1894793Y503633D2*
D13*
X1954725Y443701D1*
X2014656Y503633D2*
X1954725Y443701D1*
X712355Y486071D2*
X754725Y443701D1*
X797095Y486071D2*
X754725Y443701D1*
X1015138Y683288D2*
X1094311Y604114D1*
Y683288D2*
X1015138Y604114D1*
D19*
X1954725Y443701D3*
D20*
X1854725D3*
X1754725D3*
X1654725D3*
X1554725D3*
X1454725D3*
X1354725D3*
X1254725D3*
X1154725D3*
X1054725D3*
X954725D3*
X854725D3*
X754725D3*
X654725D3*
X554725D3*
X454725D3*
D19*
X854725Y1243701D3*
D20*
X954725D3*
X1054725D3*
X1154725D3*
X1254725D3*
X1354725D3*
X1454725D3*
X1554725D3*
X1654725D3*
X1754725D3*
X1854725D3*
X1954725D3*
D25*
X1054725Y643701D3*
Y1037402D3*
M02*
