M48
INCH
T01C0.0191
T02C0.0354
T03C0.0433
%
T01
X+020235Y+006500
X+019735Y+010437
X+018547Y+010937
X+016860Y+010875
X+014860Y+011250
X+014922Y+008812
X+020985Y+011625
X+006547Y+010250
X+005172Y+010562
X+005985Y+012375
X+004547Y+007937
X+005610Y+006375
T02
X+010547Y+006437
X+010547Y+010374
T03
X+019547Y+004437
X+018547Y+004437
X+017547Y+004437
X+016547Y+004437
X+015547Y+004437
X+014547Y+004437
X+013547Y+004437
X+012547Y+004437
X+011547Y+004437
X+010547Y+004437
X+009547Y+004437
X+008547Y+004437
X+007547Y+004437
X+006547Y+004437
X+005547Y+004437
X+004547Y+004437
X+008547Y+012437
X+009547Y+012437
X+010547Y+012437
X+011547Y+012437
X+012547Y+012437
X+013547Y+012437
X+014547Y+012437
X+015547Y+012437
X+016547Y+012437
X+017547Y+012437
X+018547Y+012437
X+019547Y+012437
T00
M30
