G04 DipTrace 3.1.0.1*
G04 TopMask.gbr*
%MOIN*%
G04 #@! TF.FileFunction,Soldermask,Top*
G04 #@! TF.Part,Single*
%ADD20C,0.066929*%
%ADD35R,0.070866X0.03937*%
%ADD38R,0.03937X0.027559*%
%ADD40R,0.068504X0.068504*%
%ADD42R,0.045276X0.047244*%
%ADD44C,0.074803*%
%ADD45R,0.074803X0.074803*%
%ADD47R,0.047244X0.047244*%
%ADD49C,0.047244*%
%ADD51R,0.047244X0.051181*%
%ADD53R,0.051181X0.047244*%
%FSLAX26Y26*%
G04*
G70*
G90*
G75*
G01*
G04 TopMask*
%LPD*%
D53*
X1971654Y1093701D3*
X1904725D3*
X1737795D3*
X1804725D3*
D51*
X523475Y756201D3*
Y689272D3*
X604725Y756201D3*
Y689272D3*
X648474Y968701D3*
Y901772D3*
D49*
X2004725Y993701D3*
D47*
Y920866D3*
Y848032D3*
Y775197D3*
Y702362D3*
X1931890D3*
X1859055D3*
X1786221D3*
X1713386D3*
Y775197D3*
Y848032D3*
Y920866D3*
Y993701D3*
X1786221D3*
X1859055D3*
X1931890D3*
D45*
X1954725Y443701D3*
D44*
X1854725D3*
X1754725D3*
X1654725D3*
X1554725D3*
X1454725D3*
X1354725D3*
X1254725D3*
X1154725D3*
X1054725D3*
X954725D3*
X854725D3*
X754725D3*
X654725D3*
X554725D3*
X454725D3*
D45*
X854725Y1243701D3*
D44*
X954725D3*
X1054725D3*
X1154725D3*
X1254725D3*
X1354725D3*
X1454725D3*
X1554725D3*
X1654725D3*
X1754725D3*
X1854725D3*
X1954725D3*
D42*
X1604725Y737452D3*
X1541732D3*
X1604725Y643701D3*
X1541732D3*
D51*
X1621260Y1060236D3*
Y1127166D3*
D53*
X546654Y1149950D3*
X479725D3*
X1604725Y918701D3*
X1537795D3*
X1604725Y843701D3*
X1537795D3*
D51*
X2148474Y1168701D3*
Y1235630D3*
D53*
X548474Y1231201D3*
X481545D3*
D40*
X2148475Y843701D3*
Y690158D3*
X2072097Y843701D3*
Y690158D3*
D38*
X554725Y843701D3*
Y892914D3*
Y942126D3*
Y991339D3*
X475984D3*
Y942126D3*
Y892914D3*
Y843701D3*
D20*
X1054725Y643701D3*
Y1037402D3*
D35*
X1404725Y993701D3*
Y1127559D3*
M02*
